<svg width="20" height="21" viewBox="0 0 20 21" fill="none" xmlns="http://www.w3.org/2000/svg">
<path fill-rule="evenodd" clip-rule="evenodd" d="M19.999 20.3467H16.3255V13.2212C16.3255 11.2665 15.5476 10.1761 14.1526 10.1761C12.6345 10.1761 11.7336 11.3123 11.7336 13.2212V20.3467H8.06003V7.11166H11.7336V8.60009C11.7336 8.60009 12.8861 6.35828 15.4833 6.35828C18.0814 6.35828 19.999 8.11549 19.999 11.7521C19.999 15.3877 19.999 20.3467 19.999 20.3467ZM2.68967 3.81503C1.70018 3.81503 0.898465 2.9607 0.898465 1.90713C0.898465 0.854332 1.70018 0 2.68967 0C3.67843 0 4.48015 0.854332 4.48015 1.90713C4.48088 2.9607 3.67843 3.81503 2.68967 3.81503ZM0.897461 20.3466H4.47914V7.6298H0.897461V20.3466Z" fill="#3B3A39"/>
</svg>
